<mxfile host="app.diagrams.net" agent="Mozilla/5.0 (Windows NT 10.0; Win64; x64) AppleWebKit/537.36 (KHTML, like Gecko) Chrome/131.0.0.0 Safari/537.36" version="25.0.3">
  <diagram name="Side-1" id="oqKByqBpTcWp2_wDvw8q">
    <mxGraphModel dx="1434" dy="738" grid="1" gridSize="10" guides="1" tooltips="1" connect="1" arrows="1" fold="1" page="1" pageScale="1" pageWidth="827" pageHeight="1169" math="0" shadow="0">
      <root>
        <mxCell id="0" />
        <mxCell id="1" parent="0" />
        <mxCell id="LOWN_st1GvRj5S90x7BS-1" value="Uge nr.&amp;nbsp;" style="text;html=1;align=left;verticalAlign=middle;whiteSpace=wrap;rounded=0;" vertex="1" parent="1">
          <mxGeometry x="10" y="10" width="60" height="40" as="geometry" />
        </mxCell>
        <mxCell id="LOWN_st1GvRj5S90x7BS-2" value="" style="rounded=0;whiteSpace=wrap;html=1;" vertex="1" parent="1">
          <mxGeometry x="70" y="20" width="120" height="20" as="geometry" />
        </mxCell>
        <mxCell id="LOWN_st1GvRj5S90x7BS-6" value="Ny kostplan" style="rounded=0;whiteSpace=wrap;html=1;fillColor=#f5f5f5;fontColor=#333333;strokeColor=#666666;" vertex="1" parent="1">
          <mxGeometry x="230" y="20" width="80" height="20" as="geometry" />
        </mxCell>
        <mxCell id="LOWN_st1GvRj5S90x7BS-7" value="Mandag" style="text;html=1;align=left;verticalAlign=middle;whiteSpace=wrap;rounded=0;" vertex="1" parent="1">
          <mxGeometry x="10" y="100" width="60" height="40" as="geometry" />
        </mxCell>
        <mxCell id="LOWN_st1GvRj5S90x7BS-8" value="" style="rounded=0;whiteSpace=wrap;html=1;" vertex="1" parent="1">
          <mxGeometry x="70" y="110" width="120" height="20" as="geometry" />
        </mxCell>
        <mxCell id="LOWN_st1GvRj5S90x7BS-9" value="Tirsdag" style="text;html=1;align=left;verticalAlign=middle;whiteSpace=wrap;rounded=0;" vertex="1" parent="1">
          <mxGeometry x="10" y="130" width="60" height="40" as="geometry" />
        </mxCell>
        <mxCell id="LOWN_st1GvRj5S90x7BS-10" value="" style="rounded=0;whiteSpace=wrap;html=1;" vertex="1" parent="1">
          <mxGeometry x="70" y="140" width="120" height="20" as="geometry" />
        </mxCell>
        <mxCell id="LOWN_st1GvRj5S90x7BS-13" value="Onsdag" style="text;html=1;align=left;verticalAlign=middle;whiteSpace=wrap;rounded=0;" vertex="1" parent="1">
          <mxGeometry x="10" y="160" width="60" height="40" as="geometry" />
        </mxCell>
        <mxCell id="LOWN_st1GvRj5S90x7BS-14" value="" style="rounded=0;whiteSpace=wrap;html=1;" vertex="1" parent="1">
          <mxGeometry x="70" y="170" width="120" height="20" as="geometry" />
        </mxCell>
        <mxCell id="LOWN_st1GvRj5S90x7BS-15" value="Torsdag" style="text;html=1;align=left;verticalAlign=middle;whiteSpace=wrap;rounded=0;" vertex="1" parent="1">
          <mxGeometry x="10" y="190" width="60" height="40" as="geometry" />
        </mxCell>
        <mxCell id="LOWN_st1GvRj5S90x7BS-16" value="" style="rounded=0;whiteSpace=wrap;html=1;" vertex="1" parent="1">
          <mxGeometry x="70" y="200" width="120" height="20" as="geometry" />
        </mxCell>
        <mxCell id="LOWN_st1GvRj5S90x7BS-17" value="Fredag" style="text;html=1;align=left;verticalAlign=middle;whiteSpace=wrap;rounded=0;" vertex="1" parent="1">
          <mxGeometry x="10" y="220" width="60" height="40" as="geometry" />
        </mxCell>
        <mxCell id="LOWN_st1GvRj5S90x7BS-18" value="" style="rounded=0;whiteSpace=wrap;html=1;" vertex="1" parent="1">
          <mxGeometry x="70" y="230" width="120" height="20" as="geometry" />
        </mxCell>
        <mxCell id="LOWN_st1GvRj5S90x7BS-20" value="Forrige uge" style="rounded=0;whiteSpace=wrap;html=1;fillColor=#f5f5f5;fontColor=#333333;strokeColor=#666666;" vertex="1" parent="1">
          <mxGeometry x="10" y="330" width="80" height="20" as="geometry" />
        </mxCell>
        <mxCell id="LOWN_st1GvRj5S90x7BS-21" value="Næste uge" style="rounded=0;whiteSpace=wrap;html=1;fillColor=#f5f5f5;fontColor=#333333;strokeColor=#666666;" vertex="1" parent="1">
          <mxGeometry x="100" y="330" width="80" height="20" as="geometry" />
        </mxCell>
        <mxCell id="LOWN_st1GvRj5S90x7BS-23" value="Ændre kostplan" style="rounded=0;whiteSpace=wrap;html=1;fillColor=#f5f5f5;fontColor=#333333;strokeColor=#666666;" vertex="1" parent="1">
          <mxGeometry x="230" y="300" width="90" height="20" as="geometry" />
        </mxCell>
        <mxCell id="LOWN_st1GvRj5S90x7BS-24" value="Uge nr.&amp;nbsp;" style="text;html=1;align=left;verticalAlign=middle;whiteSpace=wrap;rounded=0;" vertex="1" parent="1">
          <mxGeometry x="10" y="70" width="60" height="40" as="geometry" />
        </mxCell>
        <mxCell id="LOWN_st1GvRj5S90x7BS-25" value="" style="rounded=0;whiteSpace=wrap;html=1;fillColor=#f5f5f5;fontColor=#333333;strokeColor=#666666;" vertex="1" parent="1">
          <mxGeometry x="70" y="80" width="120" height="20" as="geometry" />
        </mxCell>
        <mxCell id="LOWN_st1GvRj5S90x7BS-26" value="Slet kostplan" style="rounded=0;whiteSpace=wrap;html=1;fillColor=#f5f5f5;fontColor=#333333;strokeColor=#666666;" vertex="1" parent="1">
          <mxGeometry x="230" y="330" width="90" height="20" as="geometry" />
        </mxCell>
        <mxCell id="LOWN_st1GvRj5S90x7BS-27" value="Saturday" style="text;html=1;align=left;verticalAlign=middle;whiteSpace=wrap;rounded=0;" vertex="1" parent="1">
          <mxGeometry x="10" y="250" width="60" height="40" as="geometry" />
        </mxCell>
        <mxCell id="LOWN_st1GvRj5S90x7BS-28" value="" style="rounded=0;whiteSpace=wrap;html=1;" vertex="1" parent="1">
          <mxGeometry x="70" y="260" width="120" height="20" as="geometry" />
        </mxCell>
        <mxCell id="LOWN_st1GvRj5S90x7BS-29" value="Sunday" style="text;html=1;align=left;verticalAlign=middle;whiteSpace=wrap;rounded=0;" vertex="1" parent="1">
          <mxGeometry x="10" y="280" width="60" height="40" as="geometry" />
        </mxCell>
        <mxCell id="LOWN_st1GvRj5S90x7BS-30" value="" style="rounded=0;whiteSpace=wrap;html=1;" vertex="1" parent="1">
          <mxGeometry x="70" y="290" width="120" height="20" as="geometry" />
        </mxCell>
      </root>
    </mxGraphModel>
  </diagram>
</mxfile>
